<?xml version="1.0" standalone="no"?>
<!DOCTYPE svg PUBLIC "-//W3C//DTD SVG 20010904//EN"
 "http://www.w3.org/TR/2001/REC-SVG-20010904/DTD/svg10.dtd">
<svg version="1.0" xmlns="http://www.w3.org/2000/svg"
 width="180.000000pt" height="180.000000pt" viewBox="0 0 180.000000 180.000000"
 preserveAspectRatio="xMidYMid meet">
<metadata>
Created by potrace 1.11, written by Peter Selinger 2001-2013
</metadata>
<g transform="translate(0.000000,180.000000) scale(0.100000,-0.100000)"
fill="#000000" stroke="none">
<path d="M0 900 l0 -900 900 0 900 0 0 900 0 900 -900 0 -900 0 0 -900z m870
670 c37 -10 104 -60 119 -89 8 -14 5 -17 -16 -16 -24 0 -30 -10 -71 -110 -25
-60 -47 -112 -49 -115 -2 -3 -12 6 -22 18 -17 23 -19 20 -177 -327 l-159 -351
-137 0 c-76 0 -138 2 -138 4 0 2 92 203 205 447 220 476 237 504 321 534 47
17 77 18 124 5z m720 -394 c0 -7 -364 -794 -393 -851 -63 -122 -171 -173 -275
-129 -39 16 -87 56 -104 87 -8 16 -7 17 11 8 17 -9 22 -8 32 11 33 64 102 193
105 197 2 2 10 -2 18 -8 13 -11 17 -7 29 21 23 53 288 631 298 651 9 15 26 17
144 17 74 0 135 -2 135 -4z"/>
</g>
</svg>
